<?xml version="1.0" encoding="UTF-8"?>
<svg id="Layer_1" data-name="Layer 1" xmlns="http://www.w3.org/2000/svg" xmlns:xlink="http://www.w3.org/1999/xlink" viewBox="0 0 1080 1080">
  <defs>
    <style>
      .cls-1 {
        fill: url(#linear-gradient-3);
      }

      .cls-2 {
        fill: url(#linear-gradient-2);
      }

      .cls-3 {
        fill: url(#linear-gradient);
      }

      .cls-4 {
        fill: #fff;
      }
    </style>
    <linearGradient id="linear-gradient" x1="556.15" y1="8.17" x2="566.14" y2="8.17" gradientUnits="userSpaceOnUse">
      <stop offset="0" stop-color="#e63946"/>
      <stop offset=".48" stop-color="#6a4c93"/>
      <stop offset="1" stop-color="#457b9d"/>
    </linearGradient>
    <linearGradient id="linear-gradient-2" x1="448.18" x2="458.17" xlink:href="#linear-gradient"/>
    <linearGradient id="linear-gradient-3" x1="0" y1="540" x2="1080" y2="540" gradientUnits="userSpaceOnUse">
      <stop offset="0" stop-color="#d52727"/>
      <stop offset=".5" stop-color="#7b3f9c"/>
      <stop offset="1" stop-color="#2778b4"/>
    </linearGradient>
  </defs>
  <path class="cls-3" d="M560.86,7.71c-1.54-.21-3.1-.31-4.66-.29-.03,0-.04.04-.05.05,3.4-.05,6.72.45,9.96,1.46l.03-.03c-2.22-.69-4.07-1.02-5.28-1.19Z"/>
  <path class="cls-2" d="M458.17,8.9l-.03.03c-3.24-1.01-6.56-1.51-9.96-1.46.01-.01.02-.04.05-.05,1.56-.02,3.12.08,4.66.29,1.21.17,3.06.5,5.28,1.19Z"/>
  <g>
    <circle class="cls-1" cx="540" cy="540" r="540"/>
    <path class="cls-4" d="M449.22,348.97c-4.79-.66-9.65-.98-14.52-.91-.07.03-.11.1-.14.14,10.56-.14,20.88,1.4,30.95,4.55l.1-.1c-6.89-2.13-12.66-3.15-16.4-3.67Z"/>
    <path class="cls-4" d="M519.56,412.07c0,4.72-.91,9.86-3.53,15.04-4.62,8.99-12.21,13.85-17.8,16.33l-4.93,2.2v-5.39c0-25.43-17.28-40.33-27.49-45.12-7.49-3.53-14.2-6.05-22.6-7.03-4.9-.56-22.25-1.64-38.89,7.9-9.41,5.42-17.28,13.29-22.77,22.74-3.32,5.77-5.53,14.52-6.51,26.02-.98,11.16-.66,23.01-.28,32.11l.17,3.67h-19.34c-2.73,0-5.42.11-7.97.28-3.22.24-6.47.66-9.72,1.22-20.85,3.64-39.8,13.5-54.81,28.51-19.2,19.2-29.84,44.77-30.01,71.91-.11,26.97,10.49,52.57,29.91,72.09,19.87,19.97,46.13,30.95,74.01,30.95l74.36.17c2.45.04,4.58.35,6.51,1.05,5.91,2.13,10.49,7.03,12.24,13.12.42,1.43.63,3.01.63,4.76v1.64c0,1.75-.21,3.29-.59,4.69-.94,3.22-2.66,6.16-5,8.5-3.43,3.46-7.97,5.53-12.84,5.77l-76.7-.14c-78.35,0-142.08-63.73-142.08-142.04,0-37.95,14.8-73.63,41.62-100.45,21.44-21.44,49.6-35.61,79.54-40.05,1.29-15.88,4.34-27.56,9.97-38.65,13.33-26.2,36.2-44.77,64.46-52.33,5.35-1.43,10.77-2.41,16.09-2.97.45-.07.91-.1,1.36-.14,1.15-.11,2.31-.17,3.46-.24,1.54-.11,3.11-.14,4.69-.14-.07.03-.11.1-.14.14,10.56-.14,20.88,1.4,30.95,4.55l.1-.1c.63.17,1.26.38,1.89.59s1.26.42,1.89.66c1.26.42,2.48.87,3.71,1.36,4.09,1.54,8.08,3.39,11.93,5.46,8.78,4.37,24.62,14.69,31.16,34.17,1.26,3.74,3.36,9.97,3.36,17.17Z"/>
    <path class="cls-4" d="M866.49,583.17c0,37.95-14.8,73.63-41.62,100.45-24.38,24.38-56.59,39.14-90.7,41.55l-.56.04-177.05-.14c-10.84-.04-19.66-8.85-19.66-19.69s8.81-19.73,19.69-19.73h167.86c7.7,0,15.39-.84,22.84-2.55,10.84-3.25,31.51-9.44,49.63-27.46,11.93-11.82,18.71-24.62,22.28-33.26,5.14-12.42,7.73-25.6,7.73-39.21,0-44.74-29.8-85.03-72.51-98.04-5.7-1.71-11.65-2.97-17.66-3.71-4.02-.49-8.18-.73-12.31-.73h-5.07v-15.49c0-.98,0-1.96-.04-2.9-.11-5.81-.56-11.58-1.33-17.17-4.37-32.14-18.85-61.31-41.9-84.36-27.88-27.88-64.95-43.27-104.44-43.27-35.99,0-71.6,13.71-98.57,37.78-1.22-.49-2.45-.94-3.71-1.36-.63-.24-1.26-.45-1.89-.66s-1.26-.42-1.89-.59c-6.89-2.13-12.66-3.15-16.4-3.67-4.79-.66-9.65-.98-14.52-.91-1.57,0-3.15.03-4.69.14-1.15.07-2.31.14-3.46.24-.45.04-.91.07-1.36.14,35.33-44.28,89.96-70.65,146.48-70.65,50.02,0,97.06,19.52,132.42,54.88,30.22,30.22,49.25,70.02,53.76,112.31,63.1,15.14,108.64,72.79,108.64,138.05Z"/>
    <path class="cls-4" d="M465.62,352.64l-.1.1c-10.07-3.15-20.39-4.69-30.95-4.55.03-.04.07-.11.14-.14,4.86-.07,9.72.24,14.52.91,3.74.52,9.51,1.54,16.4,3.67Z"/>
    <path class="cls-4" d="M600.53,462.36l-67.68,179.01c-2.87,7.59-10.21,12.66-18.33,12.66-2.34,0-4.69-.42-6.93-1.26-4.9-1.85-8.78-5.49-10.91-10.28-2.17-4.76-2.34-10.07-.49-14.97l67.68-179.01c1.85-4.9,5.49-8.78,10.28-10.91,4.76-2.17,10.07-2.34,14.97-.49,4.9,1.85,8.78,5.49,10.95,10.28,2.13,4.76,2.31,10.07.45,14.97Z"/>
    <path class="cls-4" d="M491.26,595.77c-3.46,6.3-10.04,10.21-17.24,10.21-3.25,0-6.47-.84-9.34-2.41l-76.56-41.73c-6.3-3.46-10.21-10.04-10.21-17.24.04-7.17,3.95-13.78,10.28-17.17l75.9-41.13c4.58-2.48,9.9-3.04,14.9-1.54,5.04,1.47,9.16,4.83,11.65,9.44,2.48,4.58,3.04,9.9,1.57,14.9-1.5,5.04-4.86,9.16-9.44,11.65l-44.25,23.96,44.91,24.48c9.48,5.18,12.98,17.1,7.83,26.58Z"/>
    <path class="cls-4" d="M720.08,544.6c0,7.21-3.88,13.78-10.21,17.24l-76.53,41.73c-2.87,1.57-6.12,2.41-9.37,2.41-7.17,0-13.78-3.92-17.21-10.21-5.18-9.48-1.68-21.41,7.83-26.58l44.88-24.48-44.21-23.96c-4.58-2.48-7.94-6.61-9.44-11.65-1.5-5-.94-10.32,1.54-14.9,5.14-9.51,17.07-13.05,26.58-7.9l75.9,41.13c6.3,3.39,10.25,10,10.25,17.17Z"/>
    <path class="cls-4" d="M515.64,703.71c0,11.86-9.65,21.51-21.51,21.51s-21.55-9.65-21.55-21.51,9.65-21.51,21.55-21.51,21.51,9.65,21.51,21.51Z"/>
  </g>
</svg>